<svg class="svg-icon" style="width: 1em; height: 1em;vertical-align: middle;fill: currentColor;overflow: hidden;" viewBox="0 0 1024 1024" version="1.1" xmlns="http://www.w3.org/2000/svg"><path d="M999.04 239.796C978.991 130.513 893.479 44.99 784.189 24.947 695.501 8.679 606.832 0.366 518.164 0h-12.335C417.161 0.366 328.485 8.679 239.81 24.947 130.515 44.99 44.999 130.513 24.952 239.796 8.576 329.072 0.259 418.347-0.001 507.623v8.734c0.26 89.276 8.577 178.551 24.954 267.827 20.046 109.283 105.562 194.81 214.857 214.859 90.729 16.628 181.458 24.954 272.183 24.954 90.731 0 181.457-8.326 272.196-24.954 109.289-20.049 194.802-105.576 214.851-214.859 16.641-90.741 24.953-181.452 24.953-272.194 0-90.726-8.312-181.453-24.953-272.194z" fill="#F39902" /><path d="M668.541 345.714c0-91.579-80.921-163.99-170.377-163.99-89.45 0-168.243 72.409-168.243 163.989 0 83.053 168.243 283.258 168.243 283.258s170.377-195.943 170.377-283.257z m-232.135 8.522c0-36.21 29.81-66.022 63.885-63.897 34.089 0 63.899 27.687 63.899 63.897 0.001 34.075-27.692 63.885-63.899 63.885-34.075 0.001-63.885-27.679-63.885-63.885z" fill="#FFFFFF" /><path d="M536.465 758.76l-2.086-6.267c2.601-0.976 5.204-1.955 7.828-2.953 32.305-47.239 100.147-79.776 178.623-79.776 2.938 0 5.859 0.055 8.767 0.146l-1.421-4.732c21.301-6.396 44.73-8.516 66.029-10.656v0.001h-0.001v21.31c-3.507 0.388-7.015 0.777-10.536 1.191 11.855 2.824 23.21 6.428 33.954 10.722V501.188c0-23.428-19.165-42.598-44.715-42.598H664.294c-61.766 108.616-168.252 232.147-168.252 232.147S393.809 567.204 334.174 458.59h-87.318c-23.43 0-44.716 19.167-44.716 42.598v298.166c0 23.418 21.286 42.586 44.716 42.586h279.69c-2.91-9.68-4.456-19.722-4.456-30.023 0-18.796 5.111-36.735 14.375-53.157z m-249.142-33.947c-19.167-8.525-36.207-21.3-55.372-34.075l12.774-17.049c17.037 12.786 36.205 23.428 53.24 34.076l-10.642 17.048z m97.972 44.718c-19.167-8.515-38.334-14.907-59.635-23.433l8.514-19.169c19.166 8.526 38.337 17.053 57.503 21.312l-6.382 21.29z m72.411 12.784c-8.524 0-17.037-2.133-27.693-4.262l4.263-21.298c8.522 2.13 19.167 2.13 27.681 4.261 10.656 2.132 21.298 0 31.957 0l2.129 21.299a116.34 116.34 0 0 1-38.337 0z" fill="#FFFFFF" /><path d="M772.907 841.939c23.418 0 44.715-19.166 44.715-42.586V687.744c-10.744-4.294-22.099-7.897-33.954-10.722-15.719 1.853-31.699 4.23-49.099 9.451l-4.973-16.564a280.032 280.032 0 0 0-8.767-0.146c-78.476 0-146.318 32.537-178.623 79.776 14.561-5.541 29.818-11.773 49.661-22.609l8.526 19.169c-23.43 10.657-42.598 19.169-59.635 25.559l-4.295-12.898c-9.264 16.422-14.375 34.361-14.375 53.156 0 10.302 1.546 20.344 4.456 30.023h246.363z m-83.064-163.986l8.525 19.164c-19.169 8.526-36.207 17.051-59.637 27.694l-8.521-19.168c23.43-10.642 40.465-19.165 59.633-27.69z" fill="#FFFFFF" opacity=".4" /></svg>